<svg width="254" height="92" viewBox="0 0 254 92" fill="none" xmlns="http://www.w3.org/2000/svg">
    <path d="M216.872 47.536C218.984 50.512 220.808 55.312 220.904 59.632C221.864 60.4 222.728 60.88 223.688 61.168L219.272 67.12H214.184V45.232H229.256C230.6 45.232 231.56 44.752 231.848 43.696C228.2 40.144 221.96 35.056 221.96 35.056L216.488 42.544H214.184V24.496H231.368C232.712 24.496 233.768 24.016 234.056 22.96C230.12 19.408 223.592 14.128 223.592 14.128L217.736 21.808H184.328L185.096 24.496H201.704V42.544H187.976L188.744 45.232H201.704V67.12H183.56L184.328 69.808H232.904C234.248 69.808 235.208 69.328 235.496 68.272C233 65.968 229.544 63.088 227.336 61.168C232.904 59.44 234.632 49.456 217.736 47.056L216.872 47.536ZM181.544 80.176V9.808H235.88V80.176H181.544ZM241.352 0.0159969L234.92 7.12H182.696L167.912 1.264V91.12H170.216C176.072 91.12 181.544 87.76 181.544 86.032V82.864H235.88V90.64H238.088C243.272 90.64 249.704 87.472 249.8 86.416V12.016C251.816 11.536 252.968 10.768 253.64 9.904L241.352 0.0159969Z" fill="#36282B"/>
    <path d="M48.392 50.128V24.304H66.632V50.128H48.392ZM15.464 50.128V24.304H33.512V50.128H15.464ZM72.104 14.608L65.768 21.616H48.392V4.528C51.08 4.144 51.752 3.088 51.944 1.744L33.512 0.0159969V21.616H16.52L0.776 15.664V62.512H2.888C8.936 62.512 15.464 59.248 15.464 57.808V52.816H33.512V91.12H36.296C41.96 91.12 48.392 87.472 48.392 86.032V52.816H66.632V60.88H69.224C74.024 60.88 81.416 58.384 81.512 57.616V26.704C83.528 26.32 84.68 25.36 85.256 24.592L72.104 14.608Z" fill="#36282B"/>
</svg>
