<svg width="27" height="26" viewBox="0 0 27 26" fill="none" xmlns="http://www.w3.org/2000/svg">
    <g clip-path="url(#clip0)">
        <path d="M24.1297 0H1.97086C0.909808 0 0.0498047 0.833768 0.0498047 1.86285V24.1364C0.0498047 25.1656 0.91011 26.0001 1.97086 26.0001H24.1297C25.1905 26.0001 26.0496 25.165 26.0496 24.1364V1.86285C26.0496 0.834071 25.1905 0 24.1297 0ZM7.93219 21.7638H4.00381V10.0251H7.93219V21.7638ZM5.9684 8.42141H5.94198C4.62462 8.42141 3.77066 7.52048 3.77066 6.39257C3.77066 5.24193 4.64971 4.36542 5.99318 4.36542C7.33677 4.36542 8.16323 5.24169 8.18934 6.39257C8.18934 7.52072 7.33707 8.42141 5.9684 8.42141ZM22.0928 21.7638H18.1657V15.4832C18.1657 13.9051 17.5967 12.8282 16.1765 12.8282C15.0901 12.8282 14.4452 13.5547 14.162 14.2561C14.057 14.5066 14.031 14.857 14.031 15.2068V21.7636H10.1047C10.1047 21.7636 10.156 11.1259 10.1047 10.0249H14.0316V11.6891C14.553 10.8895 15.4845 9.74874 17.5699 9.74874C20.1547 9.74874 22.0928 11.4255 22.0928 15.0328V21.7638ZM14.0063 11.7264C14.013 11.7154 14.0223 11.7022 14.0316 11.6893V11.7264H14.0063Z" fill="white"/>
    </g>
    <defs>
        <clipPath id="clip0">
            <rect width="26" height="26.0001" fill="white" transform="translate(0.0498047)"/>
        </clipPath>
    </defs>
</svg>
